<?xml version="1.0" encoding="utf-8"?>
<!-- Generator: Adobe Illustrator 17.1.0, SVG Export Plug-In . SVG Version: 6.00 Build 0)  -->
<!DOCTYPE svg PUBLIC "-//W3C//DTD SVG 1.1//EN" "http://www.w3.org/Graphics/SVG/1.1/DTD/svg11.dtd">
<svg version="1.1" id="Filled_Icons" xmlns="http://www.w3.org/2000/svg" xmlns:xlink="http://www.w3.org/1999/xlink" x="0px"
	 y="0px" width="24px" height="24px" viewBox="0 0 24 24" enable-background="new 0 0 24 24" xml:space="preserve">
<g>
	<path d="M4.043,7H19c0.553,0,1-0.448,1-1c0-0.552-0.447-1-1-1H4.043c-0.553,0-1,0.448-1,1C3.043,6.552,3.49,7,4.043,7z"/>
	<path d="M19,9H4.043c-0.553,0-1,0.448-1,1c0,0.552,0.447,1,1,1H19c0.553,0,1-0.448,1-1C20,9.448,19.553,9,19,9z"/>
	<path d="M19,13H4.043c-0.553,0-1,0.448-1,1c0,0.552,0.447,1,1,1H19c0.553,0,1-0.448,1-1C20,13.448,19.553,13,19,13z"/>
	<path d="M19,17H4.043c-0.553,0-1,0.448-1,1c0,0.552,0.447,1,1,1H19c0.553,0,1-0.448,1-1C20,17.448,19.553,17,19,17z"/>
</g>
</svg>
