<?xml version="1.0" encoding="utf-8"?>
<!-- Generator: Adobe Illustrator 16.0.0, SVG Export Plug-In . SVG Version: 6.00 Build 0)  -->
<!DOCTYPE svg PUBLIC "-//W3C//DTD SVG 1.1//EN" "http://www.w3.org/Graphics/SVG/1.1/DTD/svg11.dtd">
<svg version="1.1" id="Outline_Icons" xmlns="http://www.w3.org/2000/svg" xmlns:xlink="http://www.w3.org/1999/xlink" x="0px"
	 y="0px" width="24px" height="24px" viewBox="0 0 24 24" enable-background="new 0 0 24 24" xml:space="preserve">
<path d="M20.975,18.658l3-9c0.051-0.152,0.025-0.32-0.069-0.451C23.812,9.077,23.661,9,23.5,9H5.808L4.486,3.385
	C4.434,3.16,4.232,3,4,3H0.5C0.224,3,0,3.224,0,3.5S0.224,4,0.5,4h3.104l3.79,16.104C6.589,20.363,6,21.11,6,22c0,1.103,0.897,2,2,2
	s2-0.897,2-2c0-0.366-0.105-0.705-0.278-1h7.557C17.105,21.295,17,21.634,17,22c0,1.103,0.897,2,2,2s2-0.897,2-2s-0.897-2-2-2H8.396
	l-0.235-1H20.5C20.715,19,20.906,18.862,20.975,18.658z M9,22c0,0.551-0.448,1-1,1s-1-0.449-1-1s0.448-1,1-1S9,21.449,9,22z M20,22
	c0,0.551-0.448,1-1,1s-1-0.449-1-1s0.448-1,1-1S20,21.449,20,22z M7.926,18l-1.883-8h16.764l-2.667,8H7.926z"/>
</svg>
